<?xml version="1.0" encoding="UTF-8" standalone="no"?>
<svg
   width="191"
   height="184"
   version="1.1"
   id="svg9026"
   sodipodi:docname="illustration.svg"
   inkscape:version="1.2 (dc2aedaf03, 2022-05-15)"
   xmlns:inkscape="http://www.inkscape.org/namespaces/inkscape"
   xmlns:sodipodi="http://sodipodi.sourceforge.net/DTD/sodipodi-0.dtd"
   xmlns:xlink="http://www.w3.org/1999/xlink"
   xmlns="http://www.w3.org/2000/svg"
   xmlns:svg="http://www.w3.org/2000/svg">
  <sodipodi:namedview
     id="namedview9028"
     pagecolor="#ffffff"
     bordercolor="#999999"
     borderopacity="1"
     inkscape:showpageshadow="0"
     inkscape:pageopacity="0"
     inkscape:pagecheckerboard="0"
     inkscape:deskcolor="#d1d1d1"
     showgrid="false"
     inkscape:zoom="2.982146"
     inkscape:cx="24.646681"
     inkscape:cy="101.26935"
     inkscape:window-width="1920"
     inkscape:window-height="974"
     inkscape:window-x="-11"
     inkscape:window-y="-11"
     inkscape:window-maximized="1"
     inkscape:current-layer="svg9026" />
  <defs
     id="defs9010">
    <filter
       x="-0.67147893"
       y="-0.73264546"
       width="2.3429579"
       height="2.7705599"
       filterUnits="objectBoundingBox"
       id="a">
      <feOffset
         dy="25"
         in="SourceAlpha"
         result="shadowOffsetOuter1"
         id="feOffset9002" />
      <feGaussianBlur
         stdDeviation="25"
         in="shadowOffsetOuter1"
         result="shadowBlurOuter1"
         id="feGaussianBlur9004" />
      <feColorMatrix
         values="0 0 0 0 0.209139076 0 0 0 0 0.0691446444 0 0 0 0 0.478091033 0 0 0 0.497159091 0"
         in="shadowBlurOuter1"
         id="feColorMatrix9006" />
    </filter>
    <path
       id="b"
       d="M0 27.756v53.87l41.968 24.035 47.387-28.025v-53.87" />
    <linearGradient
       x1="220.65826"
       y1="247.95624"
       x2="202.97754"
       y2="264.18649"
       id="a-8"
       gradientTransform="scale(1.2157671,0.82252598)"
       gradientUnits="userSpaceOnUse">
      <stop
         stop-color="#78B46A"
         offset="0%"
         id="stop197" />
      <stop
         stop-color="#7F3500"
         offset="3%"
         id="stop199" />
      <stop
         stop-color="#FFF"
         offset="100%"
         id="stop201" />
    </linearGradient>
    <linearGradient
       x1="166.5695"
       y1="372.62115"
       x2="131.68195"
       y2="395.25"
       id="b-0"
       gradientTransform="scale(1.3010009,0.76863896)"
       gradientUnits="userSpaceOnUse">
      <stop
         stop-color="#78B46A"
         offset="0%"
         id="stop204" />
      <stop
         stop-color="#7F3500"
         offset="3%"
         id="stop206" />
      <stop
         stop-color="#FFF"
         offset="100%"
         id="stop208" />
    </linearGradient>
    <linearGradient
       x1="127.19859"
       y1="182.6964"
       x2="101.67627"
       y2="202.02328"
       id="c"
       gradientTransform="scale(1.2041375,0.83046997)"
       gradientUnits="userSpaceOnUse">
      <stop
         stop-color="#78B46A"
         offset="0%"
         id="stop211" />
      <stop
         stop-color="#7F3500"
         offset="3%"
         id="stop213" />
      <stop
         stop-color="#FFF"
         offset="100%"
         id="stop215" />
    </linearGradient>
    <linearGradient
       x1="262.11877"
       y1="207.53355"
       x2="249.3264"
       y2="202.52003"
       id="d"
       gradientTransform="scale(1.3649494,0.7326279)"
       gradientUnits="userSpaceOnUse">
      <stop
         stop-color="#FFF"
         stop-opacity="0"
         offset="0%"
         id="stop218" />
      <stop
         stop-color="#DC841E"
         offset="99%"
         id="stop220" />
    </linearGradient>
    <linearGradient
       x1="81.465111"
       y1="285.87747"
       x2="46.155888"
       y2="309.3515"
       id="e"
       gradientTransform="scale(1.2850754,0.77816446)"
       gradientUnits="userSpaceOnUse">
      <stop
         stop-color="#78B46A"
         offset="0%"
         id="stop223" />
      <stop
         stop-color="#7F3500"
         offset="3%"
         id="stop225" />
      <stop
         stop-color="#FFF"
         offset="100%"
         id="stop227" />
    </linearGradient>
  </defs>
  <g
     id="g12929"
     inkscape:export-filename="..\..\..\..\..\..\porto\faq-accordion\assets\illustration.png"
     inkscape:export-xdpi="96"
     inkscape:export-ydpi="96"
     transform="matrix(3.4026845,0,0,3.4026845,1822.4319,-5.5571042)">
    <rect
       style="fill:none;stroke-width:2"
       id="rect12876"
       width="49.96402"
       height="49.96402"
       x="-532.50244"
       y="3.6886189" />
    <g
       id="g12566"
       inkscape:export-filename="..\..\..\..\..\..\porto\faq-accordion\assets\illustration.png"
       inkscape:export-xdpi="96"
       inkscape:export-ydpi="96"
       transform="matrix(0.09811404,0,0,0.09811404,-461.51635,18.490158)">
      <g
         fill-rule="nonzero"
         fill="none"
         id="g312"
         transform="translate(-686.09708,-104.58238)"
         inkscape:export-filename="..\..\..\..\..\..\porto\faq-accordion\assets\illustration-woman-online-desktop.png"
         inkscape:export-xdpi="96"
         inkscape:export-ydpi="96">
        <path
           d="M 229.018,355.203 9.313,225.211 C 2.318,221.273 -3.677,214.821 3.138,210.589 L 223.625,83.367 c 3.305,-2.052 8.327,-3.399 11.696,-1.437 l 230.595,134.007 c 6.994,4.066 8.25,15.392 1.28,19.496 L 257.972,354.998 a 29.178,29.178 0 0 1 -28.953,0.205 z"
           fill="#5b36a0"
           id="path232" />
        <path
           d="M 229.018,349.203 9.313,219.211 C 2.318,215.273 -3.677,208.821 3.138,204.589 L 223.625,77.367 c 3.305,-2.052 8.327,-3.399 11.696,-1.437 l 230.595,134.007 c 6.994,4.066 8.25,15.392 1.28,19.496 L 257.972,348.998 a 29.178,29.178 0 0 1 -28.953,0.205 z"
           fill="#6862e6"
           id="path234" />
        <path
           d="M 247.133,177.693 203.78,202.46 c 0,0 66.783,40.8 80.439,46.546 l 24.968,-35.913"
           fill="url(#a)"
           opacity="0.25"
           style="mix-blend-mode:multiply;fill:url(#a-8)"
           id="path236" />
        <path
           d="m 232.157,296.513 -43.365,-24.715 -43.364,24.767 c 0,0 22.585,13.8 44.171,26.473 13.708,-9.71 27.428,-19.521 42.558,-26.525 z"
           fill="url(#b)"
           opacity="0.25"
           style="mix-blend-mode:multiply;fill:url(#b-0)"
           id="path238" />
        <path
           d="m 138.728,143.883 -27.505,15.712 c 0,0 2.331,14.404 15.988,20.15 l 36.01,-23.087"
           fill="url(#c)"
           opacity="0.46"
           style="mix-blend-mode:multiply;fill:url(#c)"
           id="path240" />
        <ellipse
           fill="#68e1fd"
           cx="152.192"
           cy="147.89799"
           rx="16.59"
           ry="11.697"
           id="ellipse242" />
        <ellipse
           fill="#974c26"
           cx="152.179"
           cy="140.99699"
           rx="12.426"
           ry="5.092"
           id="ellipse244" />
        <path
           d="m 151.73,132.506 c 0,-2.296 -0.076,-4.591 -0.256,-6.887 -0.051,-0.599 -0.106,-1.193 -0.166,-1.783 l -0.128,-1.167 c 0,-0.347 -0.18,-1.283 -0.18,-1.193 -0.077,-0.47 -0.158,-0.936 -0.243,-1.398 a 54.855,54.855 0 0 0 -8.865,-21.715 31.778,31.778 0 0 0 -2.473,12.71 c 0,1.284 0.103,2.566 0.205,3.772 v 0.757 c 0.103,0.615 0.218,1.282 0.346,1.846 a 50.222,50.222 0 0 0 1.96,6.888 41.928,41.928 0 0 0 2.678,6.003 82.454,82.454 0 0 0 3.676,6.349 90.88,90.88 0 0 0 2.985,4.425 c 0.308,-2.86 0.449,-5.734 0.461,-8.607 z m -6.52,-25.819 a 2.067,2.067 0 0 0 0,-0.897 c 0.316,0.324 0.628,0.658 0.935,1 a 2.84,2.84 0 0 0 -0.948,-0.103 z"
           fill="#999a1c"
           id="path246" />
        <path
           d="m 155.996,134.276 a 65.015,65.015 0 0 0 3.498,-5.938 c 0.282,-0.53 0.555,-1.06 0.82,-1.59 l 0.525,-1.065 0.5,-1.103 0.55,-1.283 a 54.876,54.876 0 0 0 4.266,-23.087 31.728,31.728 0 0 0 -8.967,9.363 45.938,45.938 0 0 0 -1.858,3.284 l -0.256,0.474 -0.064,0.206 c -0.243,0.577 -0.487,1.154 -0.717,1.744 a 50.22,50.22 0 0 0 -2.063,6.862 41.95,41.95 0 0 0 -0.986,6.503 77.621,77.621 0 0 0 -0.333,7.323 c 0,1.911 0,3.656 0.115,5.336 1.704,-2.27 3.42,-4.605 4.97,-7.029 z m 8.456,-25.254 c 0.2,-0.226 0.349,-0.493 0.435,-0.783 0.094,0.445 0.175,0.873 0.244,1.283 -0.2,-0.2 -0.43,-0.368 -0.68,-0.5 z"
           fill="#999a1c"
           id="path248" />
        <path
           d="m 155.907,139.997 a 64.687,64.687 0 0 0 3.843,-2.078 l 0.96,-0.59 0.629,-0.398 0.615,-0.436 0.717,-0.526 a 34.464,34.464 0 0 0 9.736,-11.069 19.928,19.928 0 0 0 -7.84,2.168 c -0.705,0.36 -1.384,0.757 -2.063,1.167 l -0.294,0.18 -0.103,0.09 -0.948,0.705 a 31.541,31.541 0 0 0 -3.33,3.04 26.351,26.351 0 0 0 -2.627,3.193 83.516,83.516 0 0 0 -2.562,3.848 55.792,55.792 0 0 0 -1.653,2.925 c 1.653,-0.693 3.306,-1.411 4.92,-2.22 z m 12.708,-10.902 a 1.28,1.28 0 0 0 0.487,-0.283 c -0.094,0.274 -0.196,0.543 -0.308,0.808 a 1.797,1.797 0 0 0 -0.179,-0.513 z m -16.885,3.411 c 0,-2.296 -0.076,-4.591 -0.256,-6.887 -0.051,-0.599 -0.106,-1.193 -0.166,-1.783 l -0.128,-1.167 c 0,-0.347 -0.18,-1.283 -0.18,-1.193 -0.077,-0.47 -0.158,-0.936 -0.243,-1.398 a 54.855,54.855 0 0 0 -8.865,-21.715 31.778,31.778 0 0 0 -2.473,12.71 c 0,1.284 0.103,2.566 0.205,3.772 v 0.757 c 0.103,0.615 0.218,1.282 0.346,1.846 a 50.222,50.222 0 0 0 1.96,6.888 41.928,41.928 0 0 0 2.678,6.003 82.454,82.454 0 0 0 3.676,6.349 90.88,90.88 0 0 0 2.985,4.425 c 0.308,-2.86 0.449,-5.734 0.461,-8.607 z m -6.52,-25.819 a 2.067,2.067 0 0 0 0,-0.897 c 0.316,0.324 0.628,0.658 0.935,1 a 2.84,2.84 0 0 0 -0.948,-0.103 z"
           fill="#999a1c"
           id="path250" />
        <path
           d="m 155.996,134.276 a 65.015,65.015 0 0 0 3.498,-5.938 c 0.282,-0.53 0.555,-1.06 0.82,-1.59 l 0.525,-1.065 0.5,-1.103 0.55,-1.283 a 54.876,54.876 0 0 0 4.266,-23.087 31.728,31.728 0 0 0 -8.967,9.363 45.938,45.938 0 0 0 -1.858,3.284 l -0.256,0.474 -0.064,0.206 c -0.243,0.577 -0.487,1.154 -0.717,1.744 a 50.22,50.22 0 0 0 -2.063,6.862 41.95,41.95 0 0 0 -0.986,6.503 77.621,77.621 0 0 0 -0.333,7.323 c 0,1.911 0,3.656 0.115,5.336 1.704,-2.27 3.42,-4.605 4.97,-7.029 z m 8.456,-25.254 c 0.2,-0.226 0.349,-0.493 0.435,-0.783 0.094,0.445 0.175,0.873 0.244,1.283 -0.2,-0.2 -0.43,-0.368 -0.68,-0.5 z"
           fill="#999a1c"
           id="path252" />
        <path
           d="m 155.907,139.997 a 64.687,64.687 0 0 0 3.843,-2.078 l 0.96,-0.59 0.629,-0.398 0.615,-0.436 0.717,-0.526 a 34.464,34.464 0 0 0 9.736,-11.069 19.928,19.928 0 0 0 -7.84,2.168 c -0.705,0.36 -1.384,0.757 -2.063,1.167 l -0.294,0.18 -0.103,0.09 -0.948,0.705 a 31.541,31.541 0 0 0 -3.33,3.04 26.351,26.351 0 0 0 -2.627,3.193 83.516,83.516 0 0 0 -2.562,3.848 55.792,55.792 0 0 0 -1.653,2.925 c 1.653,-0.693 3.306,-1.411 4.92,-2.22 z m 12.708,-10.902 a 1.28,1.28 0 0 0 0.487,-0.283 c -0.094,0.274 -0.196,0.543 -0.308,0.808 a 1.797,1.797 0 0 0 -0.179,-0.513 z"
           fill="#999a1c"
           id="path254" />
        <path
           d="m 264.35,168.022 -23.994,11.543 a 5.53,5.53 0 0 0 -0.384,9.76 l 56.867,33.22 a 5.518,5.518 0 0 0 7.43,-1.782 l 13.823,-21.523"
           fill="#a1482d"
           id="path256" />
        <path
           d="M 394.854,112.344 203.524,1.962 a 8.626,8.626 0 0 0 -8.626,0.01 8.644,8.644 0 0 0 -4.312,7.48 v 114.833 a 7.184,7.184 0 0 0 3.587,6.22 L 398.146,248.39 a 4.62,4.62 0 0 0 4.632,0.003 4.631,4.631 0 0 0 2.312,-4.018 V 130.018 a 20.398,20.398 0 0 0 -10.236,-17.674 z"
           fill="#f47b56"
           id="path258" />
        <path
           d="m 203.537,10.646 185.552,106.88 a 13.034,13.034 0 0 1 6.52,11.286 v 86.076 a 4.708,4.708 0 0 1 -2.344,4.065 4.697,4.697 0 0 1 -4.688,0.014 L 199.348,110.304 a 4.643,4.643 0 0 1 -2.331,-4.027 V 14.429 c 0,-1.555 0.827,-2.992 2.171,-3.772 a 4.351,4.351 0 0 1 4.35,-0.011 z"
           fill="#ffffff"
           id="path260" />
        <ellipse
           fill="#ab643c"
           transform="rotate(-10.9,280.738,168.465)"
           cx="280.73801"
           cy="168.465"
           rx="4.0359998"
           ry="4.6170001"
           id="ellipse262" />
        <path
           fill="url(#d)"
           opacity="0.32"
           d="m 253.41,127.427 86.23,51.869 42.595,-24.793 -76.109,-44.353"
           id="path264"
           style="fill:url(#d)" />
        <path
           d="m 359.97,117.102 -93.224,-56.91 a 3.225,3.225 0 0 0 -3.278,0.028 3.233,3.233 0 0 0 -1.565,2.884 V 95.53 a 3.4,3.4 0 0 0 1.627,2.924 l 93.212,55.704 c 0.997,0.567 2.22,0.56 3.21,-0.02 a 3.22,3.22 0 0 0 1.594,-2.79 l 0.487,-30.23 a 4.542,4.542 0 0 0 -2.063,-4.015 z"
           fill="#e2ac00"
           id="path266" />
        <path
           d="m 337.667,133.789 c 3.343,4.681 9.223,5.99 13.118,2.937 3.894,-3.053 4.343,-9.324 1,-13.993 -3.345,-4.669 -9.225,-5.99 -13.12,-2.937 -3.894,3.052 -4.342,9.311 -0.998,13.993 z"
           fill="#ffffff"
           id="path268" />
        <path
           d="m 328.52,111.318 -38.023,-22.92 a 1.447,1.447 0 0 0 -1.862,0.578 1.45,1.45 0 0 0 0.402,1.91 l 38.022,22.92 a 1.447,1.447 0 0 0 1.862,-0.578 1.45,1.45 0 0 0 -0.401,-1.91 z m -1.563,9.312 -52.41,-31.591 a 1.45,1.45 0 0 0 -1.396,2.488 l 52.345,31.603 a 1.447,1.447 0 0 0 1.862,-0.578 1.45,1.45 0 0 0 -0.401,-1.91 v -0.013 z"
           fill="#f2f2f2"
           id="path270" />
        <path
           d="M 341.369,123.387 248.196,66.49 a 3.225,3.225 0 0 0 -3.278,0.028 3.233,3.233 0 0 0 -1.565,2.884 v 32.411 a 3.4,3.4 0 0 0 1.615,2.938 l 93.211,55.703 c 1.008,0.58 2.25,0.57 3.248,-0.025 a 3.22,3.22 0 0 0 1.569,-2.848 l 0.487,-30.23 a 4.542,4.542 0 0 0 -2.114,-3.964 z"
           fill="#f47b56"
           id="path272" />
        <path
           d="m 319.065,140.074 c 3.344,4.681 9.224,5.99 13.119,2.937 3.894,-3.053 4.342,-9.325 0.999,-13.993 -3.344,-4.67 -9.224,-5.99 -13.118,-2.938 -3.895,3.053 -4.343,9.312 -1,13.994 z"
           fill="#ffffff"
           id="path274" />
        <path
           d="M 309.918,117.602 271.87,94.682 a 1.447,1.447 0 0 0 -1.862,0.578 1.45,1.45 0 0 0 0.402,1.91 l 38.022,22.92 a 1.447,1.447 0 0 0 1.862,-0.578 1.45,1.45 0 0 0 -0.401,-1.91 z m -1.575,9.376 -52.397,-31.642 a 1.447,1.447 0 0 0 -1.862,0.579 1.45,1.45 0 0 0 0.402,1.91 l 52.409,31.59 a 1.447,1.447 0 0 0 1.862,-0.578 1.45,1.45 0 0 0 -0.402,-1.91 z"
           fill="#f2f2f2"
           id="path276" />
        <path
           d="m 317.99,127.21 -93.2,-56.897 a 3.225,3.225 0 0 0 -3.278,0.027 3.233,3.233 0 0 0 -1.564,2.884 v 32.412 a 3.4,3.4 0 0 0 1.627,2.924 l 93.211,55.704 c 1.008,0.58 2.25,0.57 3.249,-0.026 a 3.22,3.22 0 0 0 1.568,-2.847 l 0.487,-30.231 a 4.542,4.542 0 0 0 -2.1,-3.95 z"
           fill="#68e1fd"
           id="path278" />
        <path
           d="m 317.99,127.21 -93.2,-56.897 a 3.225,3.225 0 0 0 -3.278,0.027 3.233,3.233 0 0 0 -1.564,2.884 v 32.412 a 3.4,3.4 0 0 0 1.627,2.924 l 93.211,55.704 c 1.008,0.58 2.25,0.57 3.249,-0.026 a 3.22,3.22 0 0 0 1.568,-2.847 l 0.487,-30.231 a 4.542,4.542 0 0 0 -2.1,-3.95 z"
           fill="#68e1fd"
           id="path280" />
        <path
           d="m 295.673,143.896 c 3.343,4.681 9.224,5.99 13.118,2.937 3.895,-3.053 4.343,-9.325 1,-13.993 -3.344,-4.669 -9.225,-5.99 -13.119,-2.937 -3.894,3.052 -4.304,9.311 -1,13.993 z"
           fill="#ffffff"
           id="path282" />
        <path
           d="m 286.526,121.425 -38.035,-22.92 a 1.447,1.447 0 0 0 -1.862,0.578 1.45,1.45 0 0 0 0.401,1.91 l 38.023,22.92 a 1.447,1.447 0 0 0 1.862,-0.578 1.45,1.45 0 0 0 -0.402,-1.91 z m -1.576,9.325 -52.409,-31.592 a 1.447,1.447 0 0 0 -1.862,0.579 1.45,1.45 0 0 0 0.402,1.91 l 52.409,31.59 a 1.447,1.447 0 0 0 1.862,-0.578 1.45,1.45 0 0 0 -0.402,-1.91 z"
           fill="#f2f2f2"
           id="path284" />
        <path
           d="m 195.672,124.028 a 45.406,45.406 0 0 0 -13.208,19.38 c -4.638,12.827 6.956,33.784 6.956,33.784 l 18.038,-14.3"
           fill="#ff8f6f"
           id="path286" />
        <path
           d="m 193.724,293.602 -4.893,-2.706 1.28,-7.003 c 0,0 7.29,0.692 7.93,3.283"
           fill="#003b94"
           id="path288" />
        <path
           d="m 195.518,293.5 c 1.102,-0.68 2.255,-1.283 3.395,-1.886 2.83,-1.552 6.918,-3.155 8.66,-6.067 a 3.39,3.39 0 0 0 -0.23,-3.848 c -2.563,-3.104 -8.174,2.001 -11.044,-1.436 -0.563,-0.68 -0.832,-11.467 -0.832,-11.467 l -10.915,2.95 c 0,0 -1.845,21.676 -1.64,23.01 0.205,1.334 3.959,2.566 3.959,2.566 a 9.666,9.666 0 0 0 3.151,-1.283 c 1.14,-0.834 0.102,-11.005 1.563,-9.581 1.46,1.424 2.1,6.99 2.1,6.99 0.607,0.092 1.222,0.11 1.833,0.051 z"
           fill="#f47b56"
           id="path290" />
        <path
           d="m 214.568,304.08 -4.894,-2.667 1.28,-7.003 c 0,0 7.29,0.693 7.93,3.283"
           fill="#003b94"
           id="path292" />
        <path
           d="m 216.412,303.978 c 1.102,-0.68 2.255,-1.282 3.395,-1.885 2.831,-1.552 6.918,-3.155 8.66,-6.067 a 3.39,3.39 0 0 0 -0.23,-3.848 c -2.563,-3.104 -8.174,2.001 -11.043,-1.436 -0.564,-0.68 -0.833,-11.467 -0.833,-11.467 l -10.915,2.95 c 0,0 -1.857,21.753 -1.652,23.036 0.205,1.282 3.958,2.565 3.958,2.565 a 9.666,9.666 0 0 0 3.152,-1.283 c 1.14,-0.833 0.102,-11.004 1.563,-9.58 1.46,1.423 2.1,6.99 2.1,6.99 a 7.498,7.498 0 0 0 1.845,0.025 z"
           fill="#f47b56"
           id="path294" />
        <path
           d="m 179.005,233.614 -3.216,43.058 c 0,0 5.125,7.08 22.304,3.142 l 0.166,-29.026 m 0.59,-8.644 c -0.372,3.706 0,44.596 0,44.596 0,0 4.752,8.901 25.442,0 l -0.295,-34.746"
           fill="#3e2928"
           id="path296" />
        <path
           d="m 177.403,247.838 c 1.41,0.975 1.896,-4.04 3.37,-3.18 a 83.77,83.77 0 0 0 16.961,7.49 h 0.128 a 1.165,1.165 0 0 1 1.576,0.577 89.585,89.585 0 0 0 11.133,2.565 c 4.83,0.77 8.826,-2.808 13.784,-3.052 0,-19.008 0.09,-73.109 -7.994,-84.652 l -23.918,-8.055 c -0.115,1.975 -11.606,15.314 -11.325,31.578 0.32,18.328 -2.062,35.618 -2.472,41.351 -0.064,0.975 -1.191,14.34 -1.243,15.378 z"
           fill="#3e2928"
           id="path298" />
        <path
           d="m 218.564,145.73 -2.203,21.804 c 0,0 -17.845,0.719 -25.532,-4.591 v -18.496"
           fill="#ff8f6f"
           id="path300" />
        <path
           d="m 241.252,131.378 -1.819,2.488 c 0.97,-2.024 1.826,-4.1 2.562,-6.22 0.513,-1.45 -1.806,-2.027 -2.318,-0.578 l -0.27,0.744 c 0.223,-0.77 0.432,-1.543 0.628,-2.322 a 1.195,1.195 0 1 0 -2.319,-0.577 62.236,62.236 0 0 1 -1.806,5.952 42.54,42.54 0 0 0 0.846,-5.26 c 0.154,-1.525 -2.242,-1.461 -2.383,0 a 37.916,37.916 0 0 1 -1.076,5.965 c 0,-0.684 -0.064,-1.368 -0.192,-2.052 a 1.206,1.206 0 0 0 -0.5,-0.86 9.29,9.29 0 0 0 -0.23,-0.795 1.204,1.204 0 0 0 -2.345,0.36 l -0.154,8.978 c -0.433,0.93 -0.999,1.795 -1.678,2.565 a 41.64,41.64 0 0 1 3.331,2.565 34.337,34.337 0 0 1 2.716,2.565 65.716,65.716 0 0 0 2.216,-2.924 c 0.088,-0.075 0.166,-0.161 0.23,-0.257 a 255.44,255.44 0 0 1 6.611,-9.337 c 0.948,-1.052 -1.14,-2.219 -2.05,-1 z"
           fill="#ffb5a9"
           id="path302" />
        <path
           d="m 207.24,125.85 c 0,0 8.43,2.27 11.85,7.695 a 96.553,96.553 0 0 1 5.65,11.66 l 6.225,-9.685 c 0,0 7.559,2.322 10.556,6.042 0,0 -8.967,19.623 -16.782,21.304 -7.814,1.68 -16.116,-11.518 -16.116,-11.518 0,0 -1.716,5.515 -1.383,-0.372"
           fill="#ff8f6f"
           id="path304" />
        <path
           d="m 212.595,146.82 a 17.097,17.097 0 0 1 -5.342,-7.618 c -1.013,-3.45 0.256,-6.478 1.434,-9.684 a 31.237,31.237 0 0 0 2.204,-9.966 c 0.102,-3.36 -0.282,-6.72 -0.513,-10.069 a 0.976,0.976 0 0 1 0,-0.436 c -1.127,-3.783 -3.433,-6.99 -7.98,-7.375 -11.774,-1 -12.44,12.057 -12.35,17.367 0.09,5.31 0.653,8.901 -3.254,11.12 -3.908,2.219 -6.726,8.042 -2.998,12.75 3.728,4.706 0.384,2.988 -2.101,7.169 -2.485,4.181 -1.845,9.402 3.254,11.287 5.099,1.885 28.799,-1.655 30.976,-3.848 a 4.531,4.531 0 0 0 1.115,-3.206 12.444,12.444 0 0 0 -4.445,-7.49 z"
           fill="#007f68"
           id="path306" />
        <path
           d="m 224.176,39.132 a 18.805,18.805 0 0 1 3.33,9.748 6.419,6.419 0 0 1 -1.088,4.553 2.624,2.624 0 0 1 -3.178,0.552 4.906,4.906 0 0 1 -1.716,-1.154 5.989,5.989 0 0 1 -1.102,-1.398 l -0.307,-0.603 a 2.13,2.13 0 0 1 -0.308,0.436 2.24,2.24 0 0 1 -1.05,0.449 3.186,3.186 0 0 1 -1.896,-0.231 7.113,7.113 0 0 1 -3.357,-3.014 9.692,9.692 0 0 1 -1.486,-4.861 4.775,4.775 0 0 1 1.192,-3.848 2.739,2.739 0 0 1 3.113,-0.488 c 0.513,0.205 0.986,0.5 1.396,0.873 0.35,0.297 0.659,0.637 0.922,1.013 l 0.23,0.41 v -1.141 l 2.563,1 0.256,7.209 c 0.018,0.516 0.178,1.017 0.462,1.449 0.24,0.417 0.609,0.745 1.05,0.936 1.238,0.488 1.81,-0.581 1.717,-3.206 a 13.889,13.889 0 0 0 -2.473,-7.247 12.136,12.136 0 0 0 -5.675,-4.848 4.774,4.774 0 0 0 -5.33,0.68 7.252,7.252 0 0 0 -2.062,5.925 15.3,15.3 0 0 0 2.562,7.696 11.817,11.817 0 0 0 5.47,5.13 c 0.812,0.34 1.684,0.51 2.563,0.5 a 3.417,3.417 0 0 0 1.665,-0.307 l 0.513,-0.283 1.55,2.886 -0.257,0.18 a 6.133,6.133 0 0 1 -0.755,0.359 c -0.41,0.177 -0.84,0.298 -1.282,0.36 a 6.398,6.398 0 0 1 -1.703,0 8.575,8.575 0 0 1 -2.165,-0.552 14.093,14.093 0 0 1 -5.125,-3.771 22.36,22.36 0 0 1 -3.971,-6.208 19.027,19.027 0 0 1 -1.64,-6.888 c -0.138,-2 0.27,-3.999 1.179,-5.784 a 6.51,6.51 0 0 1 3.638,-3.207 7,7 0 0 1 5.047,0.257 16.288,16.288 0 0 1 7.508,6.438 z m -5.65,9.12 c 0.42,-0.538 0.61,-1.221 0.525,-1.899 a 4.904,4.904 0 0 0 -0.679,-2.372 3.255,3.255 0 0 0 -1.55,-1.411 1.395,1.395 0 0 0 -1.576,0.205 2.35,2.35 0 0 0 -0.563,1.86 c 0.029,0.846 0.28,1.669 0.73,2.385 0.37,0.652 0.94,1.165 1.627,1.463 a 1.28,1.28 0 0 0 1.486,-0.231 m 156.907,129.761 a 18.74,18.74 0 0 1 3.33,9.748 6.419,6.419 0 0 1 -1.088,4.553 2.637,2.637 0 0 1 -3.177,0.552 5.047,5.047 0 0 1 -1.717,-1.154 6.207,6.207 0 0 1 -1.102,-1.399 l -0.307,-0.602 c -0.087,0.156 -0.19,0.302 -0.308,0.436 -0.304,0.24 -0.666,0.395 -1.05,0.449 a 3.071,3.071 0 0 1 -1.883,-0.218 7.113,7.113 0 0 1 -3.357,-3.027 9.653,9.653 0 0 1 -1.499,-4.874 4.724,4.724 0 0 1 1.192,-3.848 2.726,2.726 0 0 1 3.1,-0.487 c 0.514,0.204 0.987,0.499 1.396,0.872 0.35,0.302 0.66,0.647 0.923,1.026 l 0.243,0.41 v -1.141 l 2.562,0.987 0.257,7.209 c 0.022,0.515 0.181,1.015 0.46,1.449 0.242,0.417 0.61,0.745 1.051,0.936 1.281,0.488 1.807,-0.577 1.73,-3.206 a 13.953,13.953 0 0 0 -2.473,-7.26 12.161,12.161 0 0 0 -5.662,-4.835 4.787,4.787 0 0 0 -5.33,0.667 7.252,7.252 0 0 0 -2.01,5.964 15.25,15.25 0 0 0 2.561,7.695 11.868,11.868 0 0 0 5.535,4.964 6.668,6.668 0 0 0 2.562,0.513 3.545,3.545 0 0 0 1.665,-0.308 l 0.513,-0.282 1.55,2.886 -0.256,0.18 a 6.133,6.133 0 0 1 -0.756,0.359 c -0.412,0.17 -0.842,0.29 -1.281,0.359 a 6.526,6.526 0 0 1 -1.717,0 8.55,8.55 0 0 1 -2.152,-0.564 14.093,14.093 0 0 1 -5.125,-3.759 22.41,22.41 0 0 1 -3.97,-6.22 18.988,18.988 0 0 1 -1.64,-6.888 11.003,11.003 0 0 1 1.178,-5.772 6.562,6.562 0 0 1 3.638,-3.219 7.09,7.09 0 0 1 5.06,0.257 16.315,16.315 0 0 1 7.354,6.592 z m -5.65,9.12 a 2.567,2.567 0 0 0 0.538,-1.899 4.865,4.865 0 0 0 -0.691,-2.372 3.204,3.204 0 0 0 -1.538,-1.411 1.395,1.395 0 0 0 -1.575,0.192 2.323,2.323 0 0 0 -0.577,1.86 c 0.03,0.842 0.281,1.66 0.73,2.373 0.369,0.655 0.94,1.172 1.627,1.475 a 1.28,1.28 0 0 0 1.486,-0.218"
           fill="#f47b56"
           id="path308" />
        <path
           d="M 120.139,232.704 76.774,208 33.423,232.754 c 0,0 24.122,15.083 45.709,27.756 13.707,-9.697 25.89,-20.791 41.007,-27.807 z"
           fill="url(#e)"
           opacity="0.25"
           style="mix-blend-mode:multiply;fill:url(#e)"
           id="path310" />
      </g>
      <path
         d="M -460.40266,307.42183 -682.2649,172.84216 c -7.06549,-4.07655 -13.11878,-10.757 -6.23589,-15.13721 L -465.85063,25.993164 c 3.33824,-2.12362 8.40912,-3.51885 11.81087,-1.48852 l 232.85941,138.737586 c 7.0635,4.20754 8.33171,15.93307 1.29401,20.18427 l -211.27989,123.78098 a 28.837508,28.837508 0 0 1 -29.23643,0.21236 z"
         fill="#6862e6"
         fill-rule="nonzero"
         opacity="0.099"
         id="path8877"
         style="stroke-width:1.98469" />
      <g
         fill="none"
         fill-rule="evenodd"
         id="g9024"
         transform="translate(-714.43605,20.335909)">
        <g
           transform="translate(50.93,2.125)"
           id="g9016">
          <use
             fill="#000000"
             filter="url(#a)"
             xlink:href="#b"
             id="use9012" />
          <use
             fill="#ff9271"
             xlink:href="#b"
             id="use9014" />
        </g>
        <path
           fill="#df5c34"
           fill-rule="nonzero"
           d="m 92.899,53.917 v 53.87 l 47.387,-28.026 v -53.87 z"
           id="path9018" />
        <path
           fill="#f47b56"
           fill-rule="nonzero"
           d="M 50.93,29.88 99.624,2.126 140.286,25.893 92.899,53.918 Z"
           id="path9020" />
        <path
           d="m 94.013,14.49 a 25.942,25.942 0 0 1 14.207,3.129 c 2.486,1.462 3.844,2.988 4.036,4.579 0.192,1.59 -0.628,2.975 -2.562,4.143 a 9.115,9.115 0 0 1 -2.985,1.18 c -0.869,0.205 -1.76,0.295 -2.652,0.269 l -0.974,-0.077 c 0.091,0.217 0.151,0.446 0.18,0.68 a 3.132,3.132 0 0 1 -0.513,1.552 5.704,5.704 0 0 1 -2.1,2.065 12.633,12.633 0 0 1 -6.7,1.77 13.247,13.247 0 0 1 -6.957,-1.757 c -1.999,-1.18 -3.023,-2.566 -3.1,-4.156 a 4.49,4.49 0 0 1 2.562,-4.015 8.488,8.488 0 0 1 2.357,-1.013 9.175,9.175 0 0 1 2.037,-0.346 h 0.705 l -1.282,-0.77 3.6,-2.244 8.34,4.912 a 4.377,4.377 0 0 0 4.15,0 c 1.769,-1.103 1.137,-2.552 -1.895,-4.348 A 19.261,19.261 0 0 0 93.911,17.696 21.67,21.67 0 0 0 82.893,20.864 c -3.023,1.89 -4.522,4.143 -4.496,6.76 0,2.564 1.601,4.848 4.714,6.682 a 21.015,21.015 0 0 0 11.146,2.655 20.926,20.926 0 0 0 11.017,-2.925 12.353,12.353 0 0 0 3.062,-2.565 5.683,5.683 0 0 0 1.28,-2.18 l 0.18,-0.808 4.753,0.269 c 0.008,0.145 0.008,0.29 0,0.436 a 8.216,8.216 0 0 1 -0.346,1.154 8.303,8.303 0 0 1 -0.82,1.72 11.912,11.912 0 0 1 -1.69,2 15.952,15.952 0 0 1 -2.755,2.13 25.602,25.602 0 0 1 -9.326,3.36 35.176,35.176 0 0 1 -10.877,0.192 24.896,24.896 0 0 1 -9.339,-3.053 12.127,12.127 0 0 1 -5.304,-5.566 8.192,8.192 0 0 1 0,-6.593 12.692,12.692 0 0 1 5.266,-5.759 28.966,28.966 0 0 1 14.655,-4.284 z m 4.663,13.262 c -0.17,-0.891 -0.77,-1.64 -1.601,-2.001 a 6.579,6.579 0 0 0 -3.33,-0.911 5.619,5.619 0 0 0 -3.101,0.795 2.283,2.283 0 0 0 -1.281,2.001 c 0.117,0.89 0.69,1.654 1.512,2.014 a 6.54,6.54 0 0 0 3.394,0.86 6.092,6.092 0 0 0 3.254,-0.847 2.065,2.065 0 0 0 1.205,-1.911"
           fill="#3e2928"
           fill-rule="nonzero"
           id="path9022" />
      </g>
    </g>
  </g>
</svg>
